<?xml version="1.0" encoding="utf-8"?>
<!-- Generator: Adobe Illustrator 17.0.0, SVG Export Plug-In . SVG Version: 6.00 Build 0)  -->
<!DOCTYPE svg PUBLIC "-//W3C//DTD SVG 1.1//EN" "http://www.w3.org/Graphics/SVG/1.1/DTD/svg11.dtd">
<svg version="1.1" id="Layer_1" xmlns="http://www.w3.org/2000/svg" xmlns:xlink="http://www.w3.org/1999/xlink" x="0px" y="0px"
	 width="148.947px" height="30.521px" viewBox="0 0 148.947 30.521" enable-background="new 0 0 148.947 30.521"
	 xml:space="preserve">
<text transform="matrix(1 0 0 1 0 23.2402)" font-family="'Quattrocento-Bold'" font-size="28">P</text>
<g>
	<path d="M30.416,5.668c-0.654-2.492-2.193-3.707-2.209-3.718l-0.034-0.027l-0.032,0.03c-1.834,1.721-2.215,3.698-2.218,3.718
		c-0.012,0.066-0.017,0.129-0.017,0.19c0,0.162,0.039,0.303,0.113,0.408c0.066,0.093,0.157,0.154,0.256,0.17
		c0.185,0.031,0.338,0.003,0.456-0.085c0.173-0.129,0.202-0.337,0.203-0.346c0.233-1.203,1.047-2.244,1.238-2.475
		c1.01,1.429,1.21,2.527,1.212,2.538c0.138,0.406,0.534,0.388,0.724,0.323C30.453,6.274,30.46,5.867,30.416,5.668z"/>
	<path d="M21.135,14.885c-0.129-0.174-0.336-0.203-0.344-0.204c-1.199-0.232-2.238-1.049-2.469-1.24
		c1.423-1.014,2.518-1.216,2.529-1.217c0.147-0.05,0.245-0.134,0.303-0.251c0.038-0.079,0.053-0.167,0.053-0.249
		c0-0.085-0.015-0.165-0.036-0.226c-0.118-0.346-0.523-0.353-0.722-0.309c-2.484,0.656-3.694,2.202-3.706,2.218l-0.027,0.035
		l0.03,0.031c1.718,1.838,3.688,2.22,3.708,2.223c0.241,0.041,0.453,0.005,0.597-0.098c0.092-0.066,0.152-0.157,0.168-0.256
		c0.008-0.048,0.012-0.095,0.012-0.139C21.231,15.079,21.199,14.973,21.135,14.885z"/>
	<path d="M30.061,20.404L30.061,20.404c-0.185-0.031-0.339-0.002-0.456,0.086c-0.173,0.129-0.201,0.337-0.202,0.346
		c-0.231,1.203-1.043,2.245-1.233,2.477c-1.013-1.426-1.215-2.524-1.217-2.534c-0.05-0.147-0.133-0.246-0.249-0.303
		c-0.16-0.079-0.356-0.059-0.475-0.018c-0.345,0.12-0.352,0.527-0.306,0.726c0.656,2.49,2.198,3.702,2.213,3.715l0.035,0.026
		l0.032-0.03c1.831-1.724,2.209-3.701,2.213-3.721C30.489,20.72,30.293,20.443,30.061,20.404z"/>
	<path d="M39.686,13.379c-1.72-1.835-3.69-2.215-3.71-2.218c-0.451-0.075-0.727,0.122-0.765,0.355
		c-0.008,0.048-0.012,0.095-0.012,0.139c0,0.125,0.033,0.232,0.097,0.319c0.129,0.174,0.337,0.202,0.346,0.204
		c1.199,0.231,2.239,1.045,2.47,1.236c-1.42,1.016-2.516,1.219-2.527,1.222c-0.147,0.049-0.247,0.134-0.303,0.252
		c-0.039,0.079-0.053,0.166-0.053,0.248c0,0.086,0.015,0.167,0.036,0.226c0.119,0.346,0.525,0.353,0.722,0.308
		c2.483-0.661,3.69-2.208,3.702-2.223l0.026-0.035L39.686,13.379z"/>
	<path d="M24.308,6.395c-2.206-1.322-4.152-1.11-4.172-1.107l-0.043,0.005L20.09,5.336c-0.11,2.517,0.995,4.197,1.006,4.214
		c0.14,0.201,0.312,0.328,0.487,0.359c0.112,0.02,0.218-0.001,0.301-0.058c0.154-0.107,0.244-0.235,0.267-0.38
		c0.004-0.026,0.006-0.051,0.006-0.076c0-0.176-0.097-0.308-0.102-0.314c-0.671-1.023-0.816-2.338-0.841-2.637
		c1.718,0.312,2.626,0.956,2.635,0.962c0.382,0.194,0.652-0.098,0.742-0.277C24.756,6.802,24.478,6.506,24.308,6.395z"/>
	<path d="M36.351,5.302l-0.007-0.043L36.3,5.258c-2.511-0.019-4.145,1.15-4.16,1.162c-0.243,0.184-0.346,0.393-0.346,0.569
		c0,0.088,0.026,0.168,0.073,0.231c0.113,0.151,0.243,0.237,0.389,0.255c0.214,0.026,0.377-0.104,0.384-0.109
		c0.995-0.712,2.3-0.904,2.598-0.94c-0.248,1.734-0.858,2.668-0.863,2.678c-0.039,0.084-0.055,0.161-0.055,0.233
		c0,0.259,0.215,0.434,0.357,0.5c0.333,0.153,0.617-0.137,0.722-0.312C36.636,7.266,36.353,5.322,36.351,5.302z"/>
	<path d="M24.613,19.642c-0.111-0.152-0.241-0.24-0.386-0.26c-0.212-0.029-0.378,0.1-0.385,0.105
		c-1.004,0.698-2.312,0.873-2.609,0.905c0.271-1.73,0.892-2.657,0.899-2.666c0.041-0.085,0.057-0.165,0.057-0.238
		c0-0.256-0.21-0.431-0.351-0.499c-0.33-0.157-0.619,0.129-0.726,0.302c-1.266,2.241-1.009,4.19-1.007,4.21l0.006,0.043l0.043,0.001
		c2.51,0.051,4.159-1.095,4.176-1.107c0.248-0.183,0.353-0.394,0.353-0.571C24.684,19.782,24.659,19.704,24.613,19.642z"/>
	<path d="M35.204,17.27c-0.272-0.37-0.605-0.422-0.794-0.282c-0.152,0.112-0.239,0.242-0.258,0.388
		c-0.003,0.022-0.005,0.043-0.005,0.064c0,0.182,0.104,0.317,0.109,0.323c0.699,1.005,0.877,2.317,0.909,2.616
		c-1.725-0.268-2.65-0.888-2.659-0.895c-0.14-0.067-0.27-0.076-0.393-0.031c-0.168,0.061-0.289,0.215-0.342,0.328
		c-0.156,0.331,0.13,0.62,0.303,0.726c2.238,1.265,4.179,1.004,4.198,1.001l0.044-0.006l0.001-0.043
		C36.362,18.938,35.215,17.286,35.204,17.27z"/>
</g>
<text transform="matrix(1 0 0 1 40 23.2404)" font-family="'Quattrocento-Bold'" font-size="28">MNYUN</text>
</svg>
